@startuml
class java.io.BufferedReader
class java.io.IOException
class java.io.InputStreamReader
class java.sql.Connection
class java.sql.DriverManager
class java.sql.ResultSet
class java.sql.Statement
class java.util.ArrayList
class java.util.Map
class theprogram.SQLWorker
class theprogram.TheProgram
theprogram.SQLWorker ..> java.sql.Connection
theprogram.SQLWorker ..> java.sql.DriverManager
theprogram.SQLWorker ..> java.sql.ResultSet
theprogram.SQLWorker ..> java.sql.Statement
theprogram.SQLWorker ..> java.util.ArrayList
theprogram.SQLWorker ..> java.util.Map
theprogram.TheProgram ..> java.io.BufferedReader
theprogram.TheProgram ..> java.io.IOException
theprogram.TheProgram ..> java.io.InputStreamReader
theprogram.TheProgram ..> theprogram.SQLWorker
@enduml